<svg xmlns="http://www.w3.org/2000/svg" viewBox="0 0 1600 1320" width="1600" height="1320" font-family="'Segoe UI', Arial, sans-serif">
  <defs>
    <!-- Arrow markers -->
    <marker id="arrow" markerWidth="10" markerHeight="7" refX="10" refY="3.5" orient="auto">
      <polygon points="0 0, 10 3.5, 0 7" fill="#64748b"/>
    </marker>
    <marker id="arrow-blue" markerWidth="10" markerHeight="7" refX="10" refY="3.5" orient="auto">
      <polygon points="0 0, 10 3.5, 0 7" fill="#3b82f6"/>
    </marker>
    <marker id="arrow-green" markerWidth="10" markerHeight="7" refX="10" refY="3.5" orient="auto">
      <polygon points="0 0, 10 3.5, 0 7" fill="#22c55e"/>
    </marker>
    <marker id="arrow-orange" markerWidth="10" markerHeight="7" refX="10" refY="3.5" orient="auto">
      <polygon points="0 0, 10 3.5, 0 7" fill="#f97316"/>
    </marker>
    <marker id="arrow-purple" markerWidth="10" markerHeight="7" refX="10" refY="3.5" orient="auto">
      <polygon points="0 0, 10 3.5, 0 7" fill="#8b5cf6"/>
    </marker>
    <marker id="arrow-cicd" markerWidth="10" markerHeight="7" refX="10" refY="3.5" orient="auto">
      <polygon points="0 0, 10 3.5, 0 7" fill="#6366f1"/>
    </marker>

    <!-- Gradients -->
    <linearGradient id="bg-grad" x1="0" y1="0" x2="0" y2="1">
      <stop offset="0%" stop-color="#f8fafc"/>
      <stop offset="100%" stop-color="#e2e8f0"/>
    </linearGradient>
    <linearGradient id="header-grad" x1="0" y1="0" x2="1" y2="0">
      <stop offset="0%" stop-color="#1e40af"/>
      <stop offset="100%" stop-color="#3b82f6"/>
    </linearGradient>
    <linearGradient id="dev-grad" x1="0" y1="0" x2="0" y2="1">
      <stop offset="0%" stop-color="#dbeafe"/>
      <stop offset="100%" stop-color="#bfdbfe"/>
    </linearGradient>
    <linearGradient id="qa-grad" x1="0" y1="0" x2="0" y2="1">
      <stop offset="0%" stop-color="#dcfce7"/>
      <stop offset="100%" stop-color="#bbf7d0"/>
    </linearGradient>
    <linearGradient id="prod-grad" x1="0" y1="0" x2="0" y2="1">
      <stop offset="0%" stop-color="#ffedd5"/>
      <stop offset="100%" stop-color="#fed7aa"/>
    </linearGradient>
    <linearGradient id="cicd-grad" x1="0" y1="0" x2="1" y2="0">
      <stop offset="0%" stop-color="#ede9fe"/>
      <stop offset="100%" stop-color="#ddd6fe"/>
    </linearGradient>

    <!-- Drop shadow filter -->
    <filter id="shadow" x="-2%" y="-2%" width="104%" height="104%">
      <feDropShadow dx="0" dy="2" stdDeviation="3" flood-color="#00000018"/>
    </filter>
    <filter id="shadow-sm" x="-2%" y="-2%" width="104%" height="104%">
      <feDropShadow dx="0" dy="1" stdDeviation="1.5" flood-color="#00000012"/>
    </filter>
  </defs>

  <!-- ═══════════════════════════════════════════════
       BACKGROUND
  ═══════════════════════════════════════════════ -->
  <rect width="1600" height="1320" fill="url(#bg-grad)" rx="0"/>

  <!-- ═══════════════════════════════════════════════
       HEADER
  ═══════════════════════════════════════════════ -->
  <rect x="0" y="0" width="1600" height="60" fill="url(#header-grad)"/>
  <!-- Logo icon -->
  <circle cx="36" cy="30" r="16" fill="#ffffff30"/>
  <text x="30" y="35" font-size="16" fill="white" font-weight="bold" text-anchor="middle">H</text>
  <text x="60" y="36" font-size="18" fill="white" font-weight="bold">Health Access Bridge</text>
  <text x="340" y="36" font-size="13" fill="#bfdbfe">Arquitectura del Sistema Completo — C4 Container &amp; Deployment Diagram</text>
  <text x="1560" y="36" font-size="11" fill="#93c5fd" text-anchor="end">v1.0 · Render Cloud · CI/CD GitHub Actions</text>

  <!-- ═══════════════════════════════════════════════
       USER / BROWSER LAYER (Top)
  ═══════════════════════════════════════════════ -->
  <rect x="520" y="78" width="560" height="100" rx="12" fill="white" stroke="#94a3b8" stroke-width="1.5" filter="url(#shadow)" stroke-dasharray="6,3"/>
  <text x="800" y="172" text-anchor="middle" font-size="11" fill="#64748b" font-style="italic">[Deployment Node: Chrome / Edge / Firefox]</text>

  <!-- Browser icon -->
  <circle cx="548" cy="118" r="14" fill="#e0f2fe" stroke="#38bdf8" stroke-width="1.2"/>
  <text x="548" y="123" text-anchor="middle" font-size="14">🌐</text>

  <rect x="536" y="90" width="528" height="72" rx="8" fill="#dbeafe" stroke="#3b82f6" stroke-width="1.5" filter="url(#shadow-sm)"/>
  <text x="800" y="113" text-anchor="middle" font-size="14" font-weight="bold" fill="#1e3a8a">Frontend SPA — React 18 + TypeScript + Vite</text>
  <text x="800" y="131" text-anchor="middle" font-size="11" fill="#475569">TailwindCSS · shadcn/ui · React Router · TanStack Query · Recharts</text>
  <text x="800" y="148" text-anchor="middle" font-size="10" fill="#64748b">Páginas: Login · Dashboard · Pacientes · Predicciones · Análisis · Perfil ICF · Admin</text>

  <!-- ═══════════════════════════════════════════════
       RENDER CLOUD PLATFORM (Main body)
  ═══════════════════════════════════════════════ -->
  <rect x="30" y="210" width="1540" height="750" rx="12" fill="#f1f5f9" stroke="#94a3b8" stroke-width="1.5" stroke-dasharray="8,4" filter="url(#shadow)"/>
  <text x="800" y="952" text-anchor="middle" font-size="13" font-weight="bold" fill="#334155">Render Cloud Platform</text>
  <text x="800" y="966" text-anchor="middle" font-size="10" fill="#94a3b8">[render.com · Region: Ohio · Web Services + Managed PostgreSQL]</text>

  <!-- ─────────────────────────────────────────────
       DEV ENVIRONMENT
  ───────────────────────────────────────────── -->
  <rect x="50" y="228" width="470" height="710" rx="10" fill="url(#dev-grad)" stroke="#3b82f6" stroke-width="2" filter="url(#shadow)"/>
  <!-- DEV badge -->
  <rect x="200" y="220" width="170" height="28" rx="14" fill="#3b82f6"/>
  <text x="285" y="239" text-anchor="middle" font-size="13" font-weight="bold" fill="white">DEV Environment</text>
  <text x="285" y="258" text-anchor="middle" font-size="9" fill="#1e40af">Branch: develop · Auto-deploy · Free Tier</text>

  <!-- DEV Frontend -->
  <rect x="68" y="274" width="434" height="80" rx="8" fill="white" stroke="#60a5fa" stroke-width="1.3" filter="url(#shadow-sm)"/>
  <text x="86" y="294" font-size="12" font-weight="bold" fill="#1e40af">📦 Frontend Static Site</text>
  <text x="86" y="310" font-size="10" fill="#475569">React 18 · Vite 5.4 · Node 18 · SPA Rewrite</text>
  <text x="86" y="326" font-size="9" fill="#3b82f6">hab-frontend-dev.onrender.com</text>
  <text x="86" y="342" font-size="9" fill="#64748b">VITE_API_BASE_URL → hab-backend-dev</text>

  <!-- DEV Backend -->
  <rect x="68" y="374" width="434" height="200" rx="8" fill="white" stroke="#60a5fa" stroke-width="1.3" filter="url(#shadow-sm)"/>
  <text x="86" y="394" font-size="12" font-weight="bold" fill="#1e40af">⚡ Backend API — FastAPI</text>
  <text x="86" y="410" font-size="10" fill="#475569">Python 3.11.10 · Uvicorn · SQLAlchemy 2.0 · Pydantic 2.10</text>
  <text x="86" y="426" font-size="9" fill="#3b82f6">hab-backend-dev.onrender.com</text>

  <!-- DEV API Routes -->
  <rect x="82" y="436" width="200" height="124" rx="5" fill="#eff6ff" stroke="#93c5fd" stroke-width="0.8"/>
  <text x="92" y="452" font-size="10" font-weight="bold" fill="#1e3a8a">API Endpoints</text>
  <text x="92" y="467" font-size="8.5" fill="#475569">POST /users/login (JWT)</text>
  <text x="92" y="480" font-size="8.5" fill="#475569">GET  /users/me</text>
  <text x="92" y="493" font-size="8.5" fill="#475569">CRUD /patients/*</text>
  <text x="92" y="506" font-size="8.5" fill="#475569">POST /patients/{id}/predict</text>
  <text x="92" y="519" font-size="8.5" fill="#475569">GET  /admin/users</text>
  <text x="92" y="532" font-size="8.5" fill="#475569">POST /admin/users/register</text>
  <text x="92" y="545" font-size="8.5" fill="#475569">GET  /health</text>

  <!-- DEV Auth & Middleware -->
  <rect x="296" y="436" width="192" height="56" rx="5" fill="#fef3c7" stroke="#f59e0b" stroke-width="0.8"/>
  <text x="306" y="452" font-size="10" font-weight="bold" fill="#92400e">🔐 Auth &amp; Security</text>
  <text x="306" y="467" font-size="8.5" fill="#78350f">JWT HS256 · bcrypt</text>
  <text x="306" y="480" font-size="8.5" fill="#78350f">CORS · OAuth2 Bearer</text>

  <!-- DEV ML Model -->
  <rect x="296" y="500" width="192" height="60" rx="5" fill="#f3e8ff" stroke="#a78bfa" stroke-width="0.8"/>
  <text x="306" y="516" font-size="10" font-weight="bold" fill="#5b21b6">🧠 ML Model</text>
  <text x="306" y="531" font-size="8.5" fill="#6b21a8">KMeans + GradientBoosting</text>
  <text x="306" y="544" font-size="8.5" fill="#6b21a8">Perfiles: Bajas/Moderadas/Altas</text>

  <!-- DEV Database -->
  <ellipse cx="285" cy="610" rx="160" ry="14" fill="#d1fae5" stroke="#22c55e" stroke-width="1.5"/>
  <rect x="125" y="610" width="320" height="70" fill="#d1fae5" stroke="none"/>
  <rect x="125" y="610" width="320" height="70" fill="none" stroke="#22c55e" stroke-width="1.5"/>
  <ellipse cx="285" cy="680" rx="160" ry="14" fill="#bbf7d0" stroke="#22c55e" stroke-width="1.5"/>
  <text x="285" y="636" text-anchor="middle" font-size="12" font-weight="bold" fill="#166534">PostgreSQL 15 — DEV</text>
  <text x="285" y="652" text-anchor="middle" font-size="9" fill="#15803d">[Render Managed DB · Free Tier]</text>
  <text x="285" y="666" text-anchor="middle" font-size="9" fill="#166534">Users · Patients · Predictions</text>

  <!-- DEV DB Models -->
  <rect x="82" y="706" width="190" height="65" rx="5" fill="white" stroke="#86efac" stroke-width="0.8"/>
  <text x="92" y="722" font-size="9" font-weight="bold" fill="#166534">📋 User Model</text>
  <text x="92" y="736" font-size="8" fill="#475569">id · email · full_name</text>
  <text x="92" y="748" font-size="8" fill="#475569">hashed_password · role · is_active</text>
  <text x="92" y="760" font-size="8" fill="#475569">Roles: admin | médico</text>

  <rect x="286" y="706" width="190" height="65" rx="5" fill="white" stroke="#86efac" stroke-width="0.8"/>
  <text x="296" y="722" font-size="9" font-weight="bold" fill="#166534">📋 Patient Model</text>
  <text x="296" y="736" font-size="8" fill="#475569">documento · nombre · edad · género</text>
  <text x="296" y="748" font-size="8" fill="#475569">causa · cat_fisica · cat_psicosocial</text>
  <text x="296" y="760" font-size="8" fill="#475569">nivel_d1-d6 · nivel_global · prediction</text>

  <!-- DEV Token info -->
  <rect x="82" y="784" width="394" height="30" rx="5" fill="#dbeafe" stroke="#60a5fa" stroke-width="0.8"/>
  <text x="285" y="804" text-anchor="middle" font-size="9" fill="#1e40af">🕐 Token Expiry: 480 min · Seed: 3 users / 10 patients</text>

  <!-- ─────────────────────────────────────────────
       QA ENVIRONMENT
  ───────────────────────────────────────────── -->
  <rect x="540" y="228" width="470" height="710" rx="10" fill="url(#qa-grad)" stroke="#22c55e" stroke-width="2" filter="url(#shadow)"/>
  <!-- QA badge -->
  <rect x="695" y="220" width="160" height="28" rx="14" fill="#22c55e"/>
  <text x="775" y="239" text-anchor="middle" font-size="13" font-weight="bold" fill="white">QA Environment</text>
  <text x="775" y="258" text-anchor="middle" font-size="9" fill="#166534">Branch: staging · Auto-deploy · Free Tier</text>

  <!-- QA Frontend -->
  <rect x="558" y="274" width="434" height="80" rx="8" fill="white" stroke="#4ade80" stroke-width="1.3" filter="url(#shadow-sm)"/>
  <text x="576" y="294" font-size="12" font-weight="bold" fill="#166534">📦 Frontend Static Site</text>
  <text x="576" y="310" font-size="10" fill="#475569">React 18 · Vite 5.4 · Node 18 · SPA Rewrite</text>
  <text x="576" y="326" font-size="9" fill="#22c55e">hab-frontend-qa.onrender.com</text>
  <text x="576" y="342" font-size="9" fill="#64748b">VITE_API_BASE_URL → hab-backend-qa</text>

  <!-- QA Backend -->
  <rect x="558" y="374" width="434" height="200" rx="8" fill="white" stroke="#4ade80" stroke-width="1.3" filter="url(#shadow-sm)"/>
  <text x="576" y="394" font-size="12" font-weight="bold" fill="#166534">⚡ Backend API — FastAPI</text>
  <text x="576" y="410" font-size="10" fill="#475569">Python 3.11.10 · Uvicorn · SQLAlchemy 2.0 · Pydantic 2.10</text>
  <text x="576" y="426" font-size="9" fill="#22c55e">hab-backend-qa.onrender.com</text>

  <!-- QA API Routes -->
  <rect x="572" y="436" width="200" height="124" rx="5" fill="#f0fdf4" stroke="#86efac" stroke-width="0.8"/>
  <text x="582" y="452" font-size="10" font-weight="bold" fill="#166534">API Endpoints</text>
  <text x="582" y="467" font-size="8.5" fill="#475569">POST /users/login (JWT)</text>
  <text x="582" y="480" font-size="8.5" fill="#475569">GET  /users/me</text>
  <text x="582" y="493" font-size="8.5" fill="#475569">CRUD /patients/*</text>
  <text x="582" y="506" font-size="8.5" fill="#475569">POST /patients/{id}/predict</text>
  <text x="582" y="519" font-size="8.5" fill="#475569">GET  /admin/users</text>
  <text x="582" y="532" font-size="8.5" fill="#475569">POST /admin/users/register</text>
  <text x="582" y="545" font-size="8.5" fill="#475569">GET  /health</text>

  <!-- QA Auth & Middleware -->
  <rect x="786" y="436" width="192" height="56" rx="5" fill="#fef3c7" stroke="#f59e0b" stroke-width="0.8"/>
  <text x="796" y="452" font-size="10" font-weight="bold" fill="#92400e">🔐 Auth &amp; Security</text>
  <text x="796" y="467" font-size="8.5" fill="#78350f">JWT HS256 · bcrypt</text>
  <text x="796" y="480" font-size="8.5" fill="#78350f">CORS · RBAC · OAuth2</text>

  <!-- QA ML Model -->
  <rect x="786" y="500" width="192" height="60" rx="5" fill="#f3e8ff" stroke="#a78bfa" stroke-width="0.8"/>
  <text x="796" y="516" font-size="10" font-weight="bold" fill="#5b21b6">🧠 ML Model</text>
  <text x="796" y="531" font-size="8.5" fill="#6b21a8">KMeans + GradientBoosting</text>
  <text x="796" y="544" font-size="8.5" fill="#6b21a8">Perfiles: Bajas/Moderadas/Altas</text>

  <!-- QA Database -->
  <ellipse cx="775" cy="610" rx="160" ry="14" fill="#d1fae5" stroke="#16a34a" stroke-width="1.5"/>
  <rect x="615" y="610" width="320" height="70" fill="#d1fae5" stroke="none"/>
  <rect x="615" y="610" width="320" height="70" fill="none" stroke="#16a34a" stroke-width="1.5"/>
  <ellipse cx="775" cy="680" rx="160" ry="14" fill="#bbf7d0" stroke="#16a34a" stroke-width="1.5"/>
  <text x="775" y="636" text-anchor="middle" font-size="12" font-weight="bold" fill="#166534">PostgreSQL 15 — QA</text>
  <text x="775" y="652" text-anchor="middle" font-size="9" fill="#15803d">[Render Managed DB · Free Tier]</text>
  <text x="775" y="666" text-anchor="middle" font-size="9" fill="#166534">Integration Tests: 30 tests (pytest)</text>

  <!-- QA DB Models -->
  <rect x="572" y="706" width="190" height="65" rx="5" fill="white" stroke="#86efac" stroke-width="0.8"/>
  <text x="582" y="722" font-size="9" font-weight="bold" fill="#166534">📋 User Model</text>
  <text x="582" y="736" font-size="8" fill="#475569">id · email · full_name</text>
  <text x="582" y="748" font-size="8" fill="#475569">hashed_password · role · is_active</text>
  <text x="582" y="760" font-size="8" fill="#475569">Roles: admin | médico</text>

  <rect x="776" y="706" width="190" height="65" rx="5" fill="white" stroke="#86efac" stroke-width="0.8"/>
  <text x="786" y="722" font-size="9" font-weight="bold" fill="#166534">📋 Patient Model</text>
  <text x="786" y="736" font-size="8" fill="#475569">documento · nombre · edad · género</text>
  <text x="786" y="748" font-size="8" fill="#475569">causa · cat_fisica · cat_psicosocial</text>
  <text x="786" y="760" font-size="8" fill="#475569">nivel_d1-d6 · nivel_global · prediction</text>

  <!-- QA Token info -->
  <rect x="572" y="784" width="394" height="30" rx="5" fill="#dcfce7" stroke="#4ade80" stroke-width="0.8"/>
  <text x="775" y="804" text-anchor="middle" font-size="9" fill="#166534">🕐 Token Expiry: 120 min · pytest: 30 integration tests</text>

  <!-- ─────────────────────────────────────────────
       PROD ENVIRONMENT
  ───────────────────────────────────────────── -->
  <rect x="1030" y="228" width="520" height="710" rx="10" fill="url(#prod-grad)" stroke="#f97316" stroke-width="2" filter="url(#shadow)"/>
  <!-- PROD badge -->
  <rect x="1195" y="220" width="190" height="28" rx="14" fill="#f97316"/>
  <text x="1290" y="239" text-anchor="middle" font-size="13" font-weight="bold" fill="white">PROD Environment</text>
  <text x="1290" y="258" text-anchor="middle" font-size="9" fill="#9a3412">Branch: master · Manual Gate · Standard Tier</text>

  <!-- PROD Manual Gate Warning -->
  <rect x="1048" y="270" width="484" height="26" rx="6" fill="#fef2f2" stroke="#ef4444" stroke-width="1.2"/>
  <text x="1290" y="288" text-anchor="middle" font-size="10" font-weight="bold" fill="#dc2626">⚠ Manual Approval Gate Required Before Deploy</text>

  <!-- PROD Frontend -->
  <rect x="1048" y="306" width="484" height="80" rx="8" fill="white" stroke="#fb923c" stroke-width="1.3" filter="url(#shadow-sm)"/>
  <text x="1066" y="326" font-size="12" font-weight="bold" fill="#9a3412">📦 Frontend Static Site</text>
  <text x="1066" y="342" font-size="10" fill="#475569">React 18 · Vite 5.4 · Node 18 · SPA Rewrite</text>
  <text x="1066" y="358" font-size="9" fill="#f97316">hab-frontend.onrender.com</text>
  <text x="1066" y="374" font-size="9" fill="#64748b">VITE_API_BASE_URL → hab-backend-prod</text>

  <!-- PROD Backend -->
  <rect x="1048" y="406" width="484" height="200" rx="8" fill="white" stroke="#fb923c" stroke-width="1.3" filter="url(#shadow-sm)"/>
  <text x="1066" y="426" font-size="12" font-weight="bold" fill="#9a3412">⚡ Backend API — FastAPI</text>
  <text x="1066" y="442" font-size="10" fill="#475569">Python 3.11.10 · Uvicorn · SQLAlchemy 2.0 · Pydantic 2.10</text>
  <text x="1066" y="458" font-size="9" fill="#f97316">hab-backend-szj1.onrender.com</text>

  <!-- PROD API Routes -->
  <rect x="1062" y="468" width="220" height="124" rx="5" fill="#fff7ed" stroke="#fdba74" stroke-width="0.8"/>
  <text x="1072" y="484" font-size="10" font-weight="bold" fill="#9a3412">API Endpoints</text>
  <text x="1072" y="499" font-size="8.5" fill="#475569">POST /users/login (JWT)</text>
  <text x="1072" y="512" font-size="8.5" fill="#475569">GET  /users/me</text>
  <text x="1072" y="525" font-size="8.5" fill="#475569">CRUD /patients/*</text>
  <text x="1072" y="538" font-size="8.5" fill="#475569">POST /patients/{id}/predict</text>
  <text x="1072" y="551" font-size="8.5" fill="#475569">GET  /admin/users</text>
  <text x="1072" y="564" font-size="8.5" fill="#475569">POST /admin/users/register</text>
  <text x="1072" y="577" font-size="8.5" fill="#475569">GET  /health (CI/CD check)</text>

  <!-- PROD Auth & Middleware -->
  <rect x="1296" y="468" width="222" height="56" rx="5" fill="#fef3c7" stroke="#f59e0b" stroke-width="0.8"/>
  <text x="1306" y="484" font-size="10" font-weight="bold" fill="#92400e">🔐 Auth &amp; Security</text>
  <text x="1306" y="499" font-size="8.5" fill="#78350f">JWT HS256 · bcrypt · RBAC</text>
  <text x="1306" y="512" font-size="8.5" fill="#78350f">CORS Strict · OAuth2 Bearer</text>

  <!-- PROD ML Model -->
  <rect x="1296" y="532" width="222" height="60" rx="5" fill="#f3e8ff" stroke="#a78bfa" stroke-width="0.8"/>
  <text x="1306" y="548" font-size="10" font-weight="bold" fill="#5b21b6">🧠 HybridModelDisability</text>
  <text x="1306" y="563" font-size="8.5" fill="#6b21a8">KMeans (3 clusters) + GradientBoosting</text>
  <text x="1306" y="576" font-size="8.5" fill="#6b21a8">13 features · joblib · Lazy-loaded</text>

  <!-- PROD Database -->
  <ellipse cx="1290" cy="642" rx="180" ry="14" fill="#d1fae5" stroke="#16a34a" stroke-width="1.5"/>
  <rect x="1110" y="642" width="360" height="70" fill="#d1fae5" stroke="none"/>
  <rect x="1110" y="642" width="360" height="70" fill="none" stroke="#16a34a" stroke-width="1.5"/>
  <ellipse cx="1290" cy="712" rx="180" ry="14" fill="#bbf7d0" stroke="#16a34a" stroke-width="1.5"/>
  <text x="1290" y="668" text-anchor="middle" font-size="12" font-weight="bold" fill="#166534">PostgreSQL 15 — PROD</text>
  <text x="1290" y="684" text-anchor="middle" font-size="9" fill="#15803d">[Render Managed DB · Standard 256MB]</text>
  <text x="1290" y="698" text-anchor="middle" font-size="9" fill="#166534">Production Data · Backups Enabled</text>

  <!-- PROD DB Models -->
  <rect x="1062" y="738" width="210" height="65" rx="5" fill="white" stroke="#86efac" stroke-width="0.8"/>
  <text x="1072" y="754" font-size="9" font-weight="bold" fill="#166534">📋 User Model</text>
  <text x="1072" y="768" font-size="8" fill="#475569">id · email · full_name</text>
  <text x="1072" y="780" font-size="8" fill="#475569">hashed_password · role · is_active</text>
  <text x="1072" y="792" font-size="8" fill="#475569">Roles: admin | médico</text>

  <rect x="1286" y="738" width="210" height="65" rx="5" fill="white" stroke="#86efac" stroke-width="0.8"/>
  <text x="1296" y="754" font-size="9" font-weight="bold" fill="#166534">📋 Patient Model</text>
  <text x="1296" y="768" font-size="8" fill="#475569">documento · nombre · edad · género</text>
  <text x="1296" y="780" font-size="8" fill="#475569">causa · cat_fisica · cat_psicosocial</text>
  <text x="1296" y="792" font-size="8" fill="#475569">nivel_d1-d6 · nivel_global · prediction</text>

  <!-- PROD Token info -->
  <rect x="1062" y="816" width="456" height="30" rx="5" fill="#ffedd5" stroke="#fb923c" stroke-width="0.8"/>
  <text x="1290" y="836" text-anchor="middle" font-size="9" fill="#9a3412">🕐 Token Expiry: 60 min · Health Check: /health every 300s</text>

  <!-- ═══════════════════════════════════════════════
       RELATIONSHIPS — Browser → Frontends
  ═══════════════════════════════════════════════ -->
  <!-- Browser to DEV -->
  <path d="M 620 162 Q 350 196 285 274" fill="none" stroke="#3b82f6" stroke-width="1.5" stroke-dasharray="5,3" marker-end="url(#arrow-blue)"/>
  <rect x="370" y="188" width="100" height="16" rx="3" fill="white" stroke="#3b82f6" stroke-width="0.5"/>
  <text x="420" y="199" text-anchor="middle" font-size="8" fill="#3b82f6">HTTPS · SPA</text>

  <!-- Browser to QA -->
  <path d="M 800 162 L 775 274" fill="none" stroke="#22c55e" stroke-width="1.5" stroke-dasharray="5,3" marker-end="url(#arrow-green)"/>
  <rect x="748" y="198" width="100" height="16" rx="3" fill="white" stroke="#22c55e" stroke-width="0.5"/>
  <text x="798" y="209" text-anchor="middle" font-size="8" fill="#22c55e">HTTPS · SPA</text>

  <!-- Browser to PROD -->
  <path d="M 980 162 Q 1200 196 1290 306" fill="none" stroke="#f97316" stroke-width="1.5" stroke-dasharray="5,3" marker-end="url(#arrow-orange)"/>
  <rect x="1060" y="188" width="100" height="16" rx="3" fill="white" stroke="#f97316" stroke-width="0.5"/>
  <text x="1110" y="199" text-anchor="middle" font-size="8" fill="#f97316">HTTPS · SPA</text>

  <!-- ═══════════════════════════════════════════════
       RELATIONSHIPS — Frontend → Backend (within envs)
  ═══════════════════════════════════════════════ -->
  <!-- DEV: Frontend → Backend -->
  <line x1="285" y1="354" x2="285" y2="374" stroke="#3b82f6" stroke-width="1.5" marker-end="url(#arrow-blue)"/>
  <text x="292" y="368" font-size="7" fill="#3b82f6">REST/HTTPS</text>

  <!-- QA: Frontend → Backend -->
  <line x1="775" y1="354" x2="775" y2="374" stroke="#22c55e" stroke-width="1.5" marker-end="url(#arrow-green)"/>
  <text x="782" y="368" font-size="7" fill="#22c55e">REST/HTTPS</text>

  <!-- PROD: Frontend → Backend -->
  <line x1="1290" y1="386" x2="1290" y2="406" stroke="#f97316" stroke-width="1.5" marker-end="url(#arrow-orange)"/>
  <text x="1297" y="400" font-size="7" fill="#f97316">REST/HTTPS</text>

  <!-- ═══════════════════════════════════════════════
       RELATIONSHIPS — Backend → Database
  ═══════════════════════════════════════════════ -->
  <!-- DEV -->
  <line x1="285" y1="574" x2="285" y2="596" stroke="#22c55e" stroke-width="1.5" marker-end="url(#arrow-green)"/>
  <text x="292" y="590" font-size="7" fill="#166534">SQL/TCP</text>

  <!-- QA -->
  <line x1="775" y1="574" x2="775" y2="596" stroke="#22c55e" stroke-width="1.5" marker-end="url(#arrow-green)"/>
  <text x="782" y="590" font-size="7" fill="#166534">SQL/TCP</text>

  <!-- PROD -->
  <line x1="1290" y1="606" x2="1290" y2="628" stroke="#22c55e" stroke-width="1.5" marker-end="url(#arrow-green)"/>
  <text x="1297" y="622" font-size="7" fill="#166534">SQL/TCP</text>

  <!-- ═══════════════════════════════════════════════
       CI/CD PIPELINE (Bottom)
  ═══════════════════════════════════════════════ -->
  <rect x="30" y="990" width="1540" height="210" rx="12" fill="url(#cicd-grad)" stroke="#8b5cf6" stroke-width="2" filter="url(#shadow)"/>
  <!-- GitHub badge -->
  <rect x="680" y="982" width="240" height="28" rx="14" fill="#6366f1"/>
  <text x="800" y="1001" text-anchor="middle" font-size="13" font-weight="bold" fill="white">GitHub Actions — CI/CD Pipeline</text>
  <text x="800" y="1018" text-anchor="middle" font-size="9" fill="#4338ca">Repo: jaquimbayoc7/health-access-bridge</text>

  <!-- Pipeline Steps -->
  <!-- Step 1: Code Commit -->
  <rect x="60" y="1034" width="170" height="70" rx="8" fill="white" stroke="#8b5cf6" stroke-width="1.3" filter="url(#shadow-sm)"/>
  <text x="145" y="1058" text-anchor="middle" font-size="11" font-weight="bold" fill="#5b21b6">📝 Code Commit</text>
  <text x="145" y="1074" text-anchor="middle" font-size="9" fill="#475569">Push to branch</text>
  <text x="145" y="1088" text-anchor="middle" font-size="8" fill="#64748b">develop | staging | master</text>

  <!-- Arrow 1→2 -->
  <line x1="230" y1="1069" x2="268" y2="1069" stroke="#6366f1" stroke-width="2" marker-end="url(#arrow-cicd)"/>

  <!-- Step 2: Install & Lint -->
  <rect x="278" y="1034" width="170" height="70" rx="8" fill="white" stroke="#8b5cf6" stroke-width="1.3" filter="url(#shadow-sm)"/>
  <text x="363" y="1058" text-anchor="middle" font-size="11" font-weight="bold" fill="#5b21b6">📦 Install &amp; Lint</text>
  <text x="363" y="1074" text-anchor="middle" font-size="9" fill="#475569">Python 3.11 · Node 18</text>
  <text x="363" y="1088" text-anchor="middle" font-size="8" fill="#64748b">pip install · npm install</text>

  <!-- Arrow 2→3 -->
  <line x1="448" y1="1069" x2="486" y2="1069" stroke="#6366f1" stroke-width="2" marker-end="url(#arrow-cicd)"/>

  <!-- Step 3: Test -->
  <rect x="496" y="1034" width="170" height="70" rx="8" fill="white" stroke="#8b5cf6" stroke-width="1.3" filter="url(#shadow-sm)"/>
  <text x="581" y="1058" text-anchor="middle" font-size="11" font-weight="bold" fill="#5b21b6">🧪 Test</text>
  <text x="581" y="1074" text-anchor="middle" font-size="9" fill="#475569">pytest (30 tests)</text>
  <text x="581" y="1088" text-anchor="middle" font-size="8" fill="#64748b">vite build · type-check</text>

  <!-- Arrow 3→4 -->
  <line x1="666" y1="1069" x2="704" y2="1069" stroke="#6366f1" stroke-width="2" marker-end="url(#arrow-cicd)"/>

  <!-- Step 4: Build -->
  <rect x="714" y="1034" width="170" height="70" rx="8" fill="white" stroke="#8b5cf6" stroke-width="1.3" filter="url(#shadow-sm)"/>
  <text x="799" y="1058" text-anchor="middle" font-size="11" font-weight="bold" fill="#5b21b6">🔨 Build</text>
  <text x="799" y="1074" text-anchor="middle" font-size="9" fill="#475569">Docker · vite build</text>
  <text x="799" y="1088" text-anchor="middle" font-size="8" fill="#64748b">render.yaml config</text>

  <!-- Arrow 4→5 -->
  <line x1="884" y1="1069" x2="922" y2="1069" stroke="#6366f1" stroke-width="2" marker-end="url(#arrow-cicd)"/>

  <!-- Step 5: Deploy DEV -->
  <rect x="932" y="1034" width="140" height="70" rx="8" fill="#dbeafe" stroke="#3b82f6" stroke-width="1.5" filter="url(#shadow-sm)"/>
  <text x="1002" y="1054" text-anchor="middle" font-size="10" font-weight="bold" fill="#1e40af">🚀 Deploy DEV</text>
  <text x="1002" y="1070" text-anchor="middle" font-size="8" fill="#3b82f6">deploy-dev.yml</text>
  <text x="1002" y="1084" text-anchor="middle" font-size="8" fill="#3b82f6">Auto on push</text>
  <text x="1002" y="1096" text-anchor="middle" font-size="7" fill="#64748b">→ develop branch</text>

  <!-- Arrow 5→6 -->
  <line x1="1072" y1="1069" x2="1098" y2="1069" stroke="#6366f1" stroke-width="2" marker-end="url(#arrow-cicd)"/>

  <!-- Step 6: Deploy QA -->
  <rect x="1108" y="1034" width="140" height="70" rx="8" fill="#dcfce7" stroke="#22c55e" stroke-width="1.5" filter="url(#shadow-sm)"/>
  <text x="1178" y="1054" text-anchor="middle" font-size="10" font-weight="bold" fill="#166534">🚀 Deploy QA</text>
  <text x="1178" y="1070" text-anchor="middle" font-size="8" fill="#22c55e">deploy-qa.yml</text>
  <text x="1178" y="1084" text-anchor="middle" font-size="8" fill="#22c55e">Auto on push</text>
  <text x="1178" y="1096" text-anchor="middle" font-size="7" fill="#64748b">→ staging branch</text>

  <!-- Arrow 6→7 -->
  <line x1="1248" y1="1069" x2="1274" y2="1069" stroke="#6366f1" stroke-width="2" marker-end="url(#arrow-cicd)"/>

  <!-- Step 7: Deploy PROD -->
  <rect x="1284" y="1034" width="170" height="70" rx="8" fill="#ffedd5" stroke="#f97316" stroke-width="1.5" filter="url(#shadow-sm)"/>
  <text x="1369" y="1054" text-anchor="middle" font-size="10" font-weight="bold" fill="#9a3412">🚀 Deploy PROD</text>
  <text x="1369" y="1070" text-anchor="middle" font-size="8" fill="#f97316">deploy-prod.yml</text>
  <text x="1369" y="1084" text-anchor="middle" font-size="8" fill="#ef4444" font-weight="bold">⚠ Manual Gate</text>
  <text x="1369" y="1096" text-anchor="middle" font-size="7" fill="#64748b">→ master branch</text>

  <!-- CI/CD → Environments (deploy arrows going up) -->
  <path d="M 285 1034 Q 285 972 285 938" fill="none" stroke="#3b82f6" stroke-width="1.2" stroke-dasharray="4,3" marker-end="url(#arrow-blue)"/>
  <text x="250" y="982" font-size="7" fill="#3b82f6">deploy</text>

  <path d="M 775 1034 Q 775 972 775 938" fill="none" stroke="#22c55e" stroke-width="1.2" stroke-dasharray="4,3" marker-end="url(#arrow-green)"/>
  <text x="740" y="982" font-size="7" fill="#22c55e">deploy</text>

  <path d="M 1290 1034 Q 1290 972 1290 938" fill="none" stroke="#f97316" stroke-width="1.2" stroke-dasharray="4,3" marker-end="url(#arrow-orange)"/>
  <text x="1255" y="982" font-size="7" fill="#f97316">deploy</text>

  <!-- ═══════════════════════════════════════════════
       DATA FLOW ARROWS (DEV → QA → PROD)
  ═══════════════════════════════════════════════ -->
  <line x1="520" y1="500" x2="540" y2="500" stroke="#64748b" stroke-width="2.5" marker-end="url(#arrow)" stroke-dasharray="6,3"/>
  <text x="530" y="494" text-anchor="middle" font-size="8" fill="#64748b" font-weight="bold" transform="rotate(-90, 530, 494)">Promotion</text>

  <line x1="1010" y1="500" x2="1030" y2="500" stroke="#64748b" stroke-width="2.5" marker-end="url(#arrow)" stroke-dasharray="6,3"/>
  <text x="1020" y="494" text-anchor="middle" font-size="8" fill="#64748b" font-weight="bold" transform="rotate(-90, 1020, 494)">Promotion</text>

  <!-- ═══════════════════════════════════════════════
       TECH STACK LEGEND (Bottom)
  ═══════════════════════════════════════════════ -->
  <rect x="60" y="1124" width="1480" height="80" rx="8" fill="white" stroke="#cbd5e1" stroke-width="1" filter="url(#shadow-sm)"/>
  <text x="800" y="1144" text-anchor="middle" font-size="12" font-weight="bold" fill="#334155">Stack Tecnológico</text>

  <!-- Frontend stack -->
  <rect x="80" y="1152" width="12" height="12" rx="2" fill="#3b82f6"/>
  <text x="98" y="1163" font-size="9" fill="#334155" font-weight="bold">Frontend:</text>
  <text x="154" y="1163" font-size="9" fill="#475569">React 18 · TypeScript 5.8 · Vite 5.4 · TailwindCSS 3.4 · shadcn/ui · React Router 6 · TanStack Query 5 · Recharts · jsPDF · xlsx</text>

  <!-- Backend stack -->
  <rect x="80" y="1172" width="12" height="12" rx="2" fill="#22c55e"/>
  <text x="98" y="1183" font-size="9" fill="#334155" font-weight="bold">Backend:</text>
  <text x="152" y="1183" font-size="9" fill="#475569">FastAPI 0.115 · Python 3.11 · Uvicorn · SQLAlchemy 2.0 · Pydantic 2.10 · python-jose (JWT) · passlib/bcrypt · psycopg2</text>

  <!-- ML stack -->
  <rect x="80" y="1192" width="12" height="12" rx="2" fill="#8b5cf6"/>
  <text x="98" y="1203" font-size="9" fill="#334155" font-weight="bold">ML/AI:</text>
  <text x="140" y="1203" font-size="9" fill="#475569">scikit-learn 1.5 (KMeans + GradientBoosting) · pandas · numpy · joblib</text>

  <!-- Infra legend -->
  <rect x="730" y="1192" width="12" height="12" rx="2" fill="#f97316"/>
  <text x="748" y="1203" font-size="9" fill="#334155" font-weight="bold">Infra:</text>
  <text x="782" y="1203" font-size="9" fill="#475569">Render.com · PostgreSQL 15 · Docker · GitHub Actions CI/CD</text>

  <!-- ═══════════════════════════════════════════════
       FOOTER
  ═══════════════════════════════════════════════ -->
  <text x="800" y="1230" text-anchor="middle" font-size="10" fill="#94a3b8">Health Access Bridge — System Architecture Diagram · C4 Container &amp; Deployment View</text>
  <text x="800" y="1246" text-anchor="middle" font-size="9" fill="#cbd5e1">jaquimbayoc7/health-access-bridge · Render Cloud · DEV / QA / PROD</text>

  <!-- ═══════════════════════════════════════════════
       COLOR LEGEND (small, top-right area)
  ═══════════════════════════════════════════════ -->
  <rect x="1380" y="74" width="190" height="118" rx="6" fill="white" stroke="#e2e8f0" stroke-width="1" filter="url(#shadow-sm)"/>
  <text x="1475" y="92" text-anchor="middle" font-size="10" font-weight="bold" fill="#334155">Leyenda</text>
  <rect x="1392" y="100" width="10" height="10" rx="2" fill="#dbeafe" stroke="#3b82f6" stroke-width="1"/>
  <text x="1410" y="110" font-size="8" fill="#475569">DEV (develop)</text>
  <rect x="1392" y="116" width="10" height="10" rx="2" fill="#dcfce7" stroke="#22c55e" stroke-width="1"/>
  <text x="1410" y="126" font-size="8" fill="#475569">QA (staging)</text>
  <rect x="1392" y="132" width="10" height="10" rx="2" fill="#ffedd5" stroke="#f97316" stroke-width="1"/>
  <text x="1410" y="142" font-size="8" fill="#475569">PROD (master)</text>
  <rect x="1392" y="148" width="10" height="10" rx="2" fill="#f3e8ff" stroke="#8b5cf6" stroke-width="1"/>
  <text x="1410" y="158" font-size="8" fill="#475569">ML Model</text>
  <rect x="1392" y="164" width="10" height="10" rx="2" fill="#d1fae5" stroke="#16a34a" stroke-width="1"/>
  <text x="1410" y="174" font-size="8" fill="#475569">Database (PostgreSQL)</text>
</svg>